####
#
# OBJ File Generated by Meshlab
#
####
# Object cube.obj
#
# Vertices: 8
# Faces: 12
#
####
vn -0.333333 -0.666667 -0.666667
v -0.025000 -0.025000 -0.025000 1.000000 1.000000 1.000000
vn 0.816497 -0.408248 -0.408248
v 0.025000 -0.025000 -0.025000 1.000000 1.000000 1.000000
vn 0.333333 0.666667 -0.666667
v 0.025000 0.025000 -0.025000 1.000000 1.000000 1.000000
vn -0.816497 0.408248 -0.408248
v -0.025000 0.025000 -0.025000 1.000000 1.000000 1.000000
vn -0.816497 -0.408248 0.408248
v -0.025000 -0.025000 0.025000 1.000000 1.000000 1.000000
vn 0.333333 -0.666667 0.666667
v 0.025000 -0.025000 0.025000 1.000000 1.000000 1.000000
vn 0.816497 0.408248 0.408248
v 0.025000 0.025000 0.025000 1.000000 1.000000 1.000000
vn -0.333333 0.666667 0.666667
v -0.025000 0.025000 0.025000 1.000000 1.000000 1.000000
# 8 vertices, 8 vertices normals

f 2//2 1//1 3//3
f 3//3 1//1 4//4
f 5//5 6//6 8//8
f 8//8 6//6 7//7
f 3//3 7//7 2//2
f 2//2 7//7 6//6
f 8//8 4//4 5//5
f 5//5 4//4 1//1
f 4//4 8//8 3//3
f 3//3 8//8 7//7
f 2//2 6//6 1//1
f 1//1 6//6 5//5
# 12 faces, 0 coords texture

# End of File